<svg xmlns="http://www.w3.org/2000/svg" width="620" height="320" viewBox="-10 -10 620 320">
<defs><marker id="arrow" viewBox="0 0 10 10" refX="10" refY="5" markerWidth="6" markerHeight="6" orient="auto">
<path d="M 0 0 L 10 5 L 0 10 z" fill="#616161"/></marker>
<marker id="arrow-green" viewBox="0 0 10 10" refX="10" refY="5" markerWidth="6" markerHeight="6" orient="auto">
<path d="M 0 0 L 10 5 L 0 10 z" fill="#4CAF50"/></marker>
<marker id="arrow-purple" viewBox="0 0 10 10" refX="10" refY="5" markerWidth="6" markerHeight="6" orient="auto">
<path d="M 0 0 L 10 5 L 0 10 z" fill="#9C27B0"/></marker>
<marker id="arrow-orange" viewBox="0 0 10 10" refX="10" refY="5" markerWidth="6" markerHeight="6" orient="auto">
<path d="M 0 0 L 10 5 L 0 10 z" fill="#F57F17"/></marker>
</defs>
<rect x="-10" y="-10" width="620" height="320" fill="#FAFBFC"/>
<line x1="150.0" y1="160.0" x2="440.0" y2="60.0" stroke="#9C27B0" stroke-width="2" stroke-dasharray="6,3" marker-end="url(#arrow-purple)"/>
<text x="295.0" y="102.0" text-anchor="middle" font-size="10" fill="#9C27B0" font-family="Arial">streaming replicacija</text>
<rect x="10.0" y="10.0" width="580.0" height="280.0" rx="10" ry="10" fill="#E8F0FE" stroke="#4285F4" stroke-width="1.5"/>
<g font-family="Arial, sans-serif" font-size="13.0" fill="#333333">
<text x="300.0" y="152.60000000000002" text-anchor="middle" font-weight="bold">CNPG Cluster </text>
</g>
<rect x="40.0" y="60.0" width="220.0" height="100.0" rx="10" ry="10" fill="#F3E5F5" stroke="#9C27B0" stroke-width="1.5"/>
<g font-family="Arial, sans-serif" font-size="11.0" fill="#333333">
<text x="150.0" y="83.6" text-anchor="middle" >sola-db-1 (PRIMARY) → k3s-1</text>
<text x="150.0" y="112.19999999999999" text-anchor="middle" >piše + bere</text>
<text x="150.0" y="140.8" text-anchor="middle" >Storage: Longhorn PVC (1Gi)</text>
</g>
<rect x="320.0" y="60.0" width="240.0" height="100.0" rx="10" ry="10" fill="#E8F5E9" stroke="#4CAF50" stroke-width="1.5"/>
<g font-family="Arial, sans-serif" font-size="11.0" fill="#333333">
<text x="440.0" y="76.44999999999999" text-anchor="middle" >sola-db-2 (REPLICA) → k3s-2</text>
<text x="440.0" y="105.04999999999998" text-anchor="middle" >samo bere</text>
<text x="440.0" y="119.35" text-anchor="middle" >gleda kaj primary dela</text>
<text x="440.0" y="147.95" text-anchor="middle" >Storage: Longhorn PVC (1Gi)</text>
</g>
<rect x="40.0" y="190.0" width="200.0" height="30.0" fill="#FFFFFF" stroke="#000000" stroke-width="1.5"/>
<g font-family="Arial, sans-serif" font-size="12.0" fill="#333333">
<text x="140.0" y="207.39999999999998" text-anchor="middle" font-weight="bold">Servisni endpointi (Kubernetes Services):</text>
</g>
<rect x="40.0" y="230.0" width="220.0" height="35.0" rx="8.75" ry="8.75" fill="#FFF9C4" stroke="#F57F17" stroke-width="1.5"/>
<g font-family="Arial, sans-serif" font-size="11.0" fill="#333333">
<text x="150.0" y="249.7" text-anchor="middle" >sola-db-rw → primary (pisanje + branje)</text>
</g>
<rect x="280.0" y="230.0" width="200.0" height="35.0" rx="8.75" ry="8.75" fill="#F5F5F5" stroke="#9E9E9E" stroke-width="1.5"/>
<g font-family="Arial, sans-serif" font-size="11.0" fill="#333333">
<text x="380.0" y="249.7" text-anchor="middle" >sola-db-ro → vse instance (samo branje)</text>
</g>
<rect x="500.0" y="230.0" width="70.0" height="35.0" rx="8.75" ry="8.75" fill="#F5F5F5" stroke="#9E9E9E" stroke-width="1.5"/>
<g font-family="Arial, sans-serif" font-size="11.0" fill="#333333">
<text x="535.0" y="249.7" text-anchor="middle" >sola-db-r → vse instance</text>
</g>
</svg>