<svg xmlns="http://www.w3.org/2000/svg" width="950" height="190" viewBox="-10 -10 950 190">
<defs><marker id="arrow" viewBox="0 0 10 10" refX="10" refY="5" markerWidth="6" markerHeight="6" orient="auto">
<path d="M 0 0 L 10 5 L 0 10 z" fill="#616161"/></marker>
<marker id="arrow-green" viewBox="0 0 10 10" refX="10" refY="5" markerWidth="6" markerHeight="6" orient="auto">
<path d="M 0 0 L 10 5 L 0 10 z" fill="#4CAF50"/></marker>
<marker id="arrow-purple" viewBox="0 0 10 10" refX="10" refY="5" markerWidth="6" markerHeight="6" orient="auto">
<path d="M 0 0 L 10 5 L 0 10 z" fill="#9C27B0"/></marker>
<marker id="arrow-orange" viewBox="0 0 10 10" refX="10" refY="5" markerWidth="6" markerHeight="6" orient="auto">
<path d="M 0 0 L 10 5 L 0 10 z" fill="#F57F17"/></marker>
</defs>
<rect x="-10" y="-10" width="950" height="190" fill="#FAFBFC"/>
<line x1="90.0" y1="70.0" x2="330.0" y2="10.0" stroke="#1E88E5" stroke-width="2"  marker-end="url(#arrow)"/>
<line x1="330.0" y1="70.0" x2="590.0" y2="10.0" stroke="#1E88E5" stroke-width="2"  marker-end="url(#arrow)"/>
<line x1="590.0" y1="70.0" x2="840.0" y2="10.0" stroke="#1E88E5" stroke-width="2"  marker-end="url(#arrow)"/>
<line x1="390.0" y1="160.0" x2="590.0" y2="10.0" stroke="#FF9800" stroke-width="2" stroke-dasharray="6,3" marker-end="url(#arrow)"/>
<text x="490.0" y="77.0" text-anchor="middle" font-size="10" fill="#FF9800" font-family="Arial">direktno</text>
<rect x="10.0" y="10.0" width="160.0" height="60.0" rx="10" ry="10" fill="#E3F2FD" stroke="#1E88E5" stroke-width="1.5"/>
<g font-family="Arial, sans-serif" font-size="12.0" fill="#FFFFFF">
<text x="90.0" y="34.599999999999994" text-anchor="middle" >🌐 Uporabnik</text>
<text x="90.0" y="50.199999999999996" text-anchor="middle" >vtipka {{DOMAIN}}</text>
</g>
<rect x="240.0" y="10.0" width="180.0" height="60.0" rx="10" ry="10" fill="#F5F5F5" stroke="#616161" stroke-width="1.5"/>
<g font-family="Arial, sans-serif" font-size="12.0" fill="#333333">
<text x="330.0" y="34.599999999999994" text-anchor="middle" >Cloudflare (SSL, proxy)</text>
<text x="330.0" y="50.199999999999996" text-anchor="middle" >{{DOMAIN}}</text>
</g>
<rect x="490.0" y="10.0" width="200.0" height="60.0" rx="10" ry="10" fill="#FFF9C4" stroke="#F57F17" stroke-width="1.5"/>
<g font-family="Arial, sans-serif" font-size="12.0" fill="#333333">
<text x="590.0" y="34.599999999999994" text-anchor="middle" >Service LoadBalancer</text>
<text x="590.0" y="50.199999999999996" text-anchor="middle" >MetalLB {{LB_IP}}:{{LB_PORT}}</text>
</g>
<rect x="760.0" y="10.0" width="160.0" height="60.0" rx="10" ry="10" fill="#E8F5E9" stroke="#4CAF50" stroke-width="1.5"/>
<g font-family="Arial, sans-serif" font-size="12.0" fill="#333333">
<text x="840.0" y="34.599999999999994" text-anchor="middle" >sola-app Pod</text>
<text x="840.0" y="50.199999999999996" text-anchor="middle" >(k3s-1 ali k3s-2)</text>
</g>
<rect x="240.0" y="110.0" width="300.0" height="50.0" rx="10" ry="10" fill="#FFF3E0" stroke="#FF9800" stroke-width="1.5"/>
<g font-family="Arial, sans-serif" font-size="11.0" fill="#333333">
<text x="390.0" y="130.05" text-anchor="middle" >Alternativa (samo interno):</text>
<text x="390.0" y="144.35000000000002" text-anchor="middle" >http://{{LB_IP}}:{{LB_PORT}}</text>
</g>
</svg>