<svg xmlns="http://www.w3.org/2000/svg" width="720" height="420" viewBox="-10 -10 720 420">
<defs><marker id="arrow" viewBox="0 0 10 10" refX="10" refY="5" markerWidth="6" markerHeight="6" orient="auto">
<path d="M 0 0 L 10 5 L 0 10 z" fill="#616161"/></marker>
<marker id="arrow-green" viewBox="0 0 10 10" refX="10" refY="5" markerWidth="6" markerHeight="6" orient="auto">
<path d="M 0 0 L 10 5 L 0 10 z" fill="#4CAF50"/></marker>
<marker id="arrow-purple" viewBox="0 0 10 10" refX="10" refY="5" markerWidth="6" markerHeight="6" orient="auto">
<path d="M 0 0 L 10 5 L 0 10 z" fill="#9C27B0"/></marker>
<marker id="arrow-orange" viewBox="0 0 10 10" refX="10" refY="5" markerWidth="6" markerHeight="6" orient="auto">
<path d="M 0 0 L 10 5 L 0 10 z" fill="#F57F17"/></marker>
</defs>
<rect x="-10" y="-10" width="720" height="420" fill="#FAFBFC"/>
<rect x="250.0" y="10.0" width="160.0" height="50.0" rx="10" ry="10" fill="#E8F0FE" stroke="#4285F4" stroke-width="1.5"/>
<g font-family="Arial, sans-serif" font-size="12.0" fill="#333333">
<text x="330.0" y="29.599999999999998" text-anchor="middle" font-weight="bold">reservation_app/</text>
<text x="330.0" y="45.2" text-anchor="middle" font-weight="bold">📁 korenska mapa projekta</text>
</g>
<rect x="10.0" y="90.0" width="220.0" height="40.0" rx="10" ry="10" fill="#E8F5E9" stroke="#4CAF50" stroke-width="1.5"/>
<g font-family="Arial, sans-serif" font-size="11.0" fill="#333333">
<text x="120.0" y="105.05" text-anchor="middle" >📁 app/</text>
<text x="120.0" y="119.35" text-anchor="middle" >Python aplikacija (FastAPI)</text>
</g>
<rect x="30.0" y="140.0" width="190.0" height="20.0" fill="#FFFFFF" stroke="#000000" stroke-width="1.5"/>
<g font-family="Arial, sans-serif" font-size="10.0" fill="#333333">
<text x="125.0" y="145.5" text-anchor="middle" >📄 main.py</text>
<text x="125.0" y="158.5" text-anchor="middle" >Vstopna točka</text>
</g>
<rect x="30.0" y="165.0" width="190.0" height="20.0" fill="#FFFFFF" stroke="#000000" stroke-width="1.5"/>
<g font-family="Arial, sans-serif" font-size="10.0" fill="#333333">
<text x="125.0" y="170.5" text-anchor="middle" >📄 config.py</text>
<text x="125.0" y="183.5" text-anchor="middle" >Nastavitve (IP-ji, gesla)</text>
</g>
<rect x="30.0" y="190.0" width="190.0" height="20.0" fill="#FFFFFF" stroke="#000000" stroke-width="1.5"/>
<g font-family="Arial, sans-serif" font-size="10.0" fill="#333333">
<text x="125.0" y="195.5" text-anchor="middle" >📄 database.py</text>
<text x="125.0" y="208.5" text-anchor="middle" >Povezava z bazo</text>
</g>
<rect x="30.0" y="215.0" width="190.0" height="20.0" fill="#FFFFFF" stroke="#000000" stroke-width="1.5"/>
<g font-family="Arial, sans-serif" font-size="10.0" fill="#333333">
<text x="125.0" y="220.5" text-anchor="middle" >📄 models.py</text>
<text x="125.0" y="233.5" text-anchor="middle" >Organizacija podatkov</text>
</g>
<rect x="30.0" y="240.0" width="190.0" height="20.0" fill="#FFFFFF" stroke="#000000" stroke-width="1.5"/>
<g font-family="Arial, sans-serif" font-size="10.0" fill="#333333">
<text x="125.0" y="245.5" text-anchor="middle" >📄 race.py</text>
<text x="125.0" y="258.5" text-anchor="middle" >Zaščita pred dvojnimi kliki</text>
</g>
<rect x="260.0" y="130.0" width="180.0" height="40.0" rx="10" ry="10" fill="#E8F5E9" stroke="#4CAF50" stroke-width="1.5"/>
<g font-family="Arial, sans-serif" font-size="11.0" fill="#333333">
<text x="350.0" y="145.04999999999998" text-anchor="middle" >📁 routers/</text>
<text x="350.0" y="159.35" text-anchor="middle" >Poti do funkcionalnosti</text>
</g>
<rect x="470.0" y="130.0" width="220.0" height="40.0" rx="10" ry="10" fill="#E8F5E9" stroke="#4CAF50" stroke-width="1.5"/>
<g font-family="Arial, sans-serif" font-size="11.0" fill="#333333">
<text x="580.0" y="145.04999999999998" text-anchor="middle" >📁 templates/</text>
<text x="580.0" y="159.35" text-anchor="middle" >HTML predloge (izgled strani)</text>
</g>
<rect x="10.0" y="300.0" width="220.0" height="40.0" rx="10" ry="10" fill="#FFF3E0" stroke="#FF9800" stroke-width="1.5"/>
<g font-family="Arial, sans-serif" font-size="11.0" fill="#333333">
<text x="120.0" y="315.05" text-anchor="middle" >📁 scripts/</text>
<text x="120.0" y="329.35" text-anchor="middle" >Pomožni skripti</text>
</g>
<rect x="260.0" y="300.0" width="200.0" height="40.0" rx="10" ry="10" fill="#FFF3E0" stroke="#FF9800" stroke-width="1.5"/>
<g font-family="Arial, sans-serif" font-size="11.0" fill="#333333">
<text x="360.0" y="315.05" text-anchor="middle" >📁 k8s/</text>
<text x="360.0" y="329.35" text-anchor="middle" >Kubernetes config</text>
</g>
<rect x="490.0" y="300.0" width="200.0" height="40.0" rx="10" ry="10" fill="#FFF3E0" stroke="#FF9800" stroke-width="1.5"/>
<g font-family="Arial, sans-serif" font-size="11.0" fill="#333333">
<text x="590.0" y="315.05" text-anchor="middle" >📁 documentation/</text>
<text x="590.0" y="329.35" text-anchor="middle" >Dokumentacija</text>
</g>
<rect x="260.0" y="370.0" width="90.0" height="20.0" fill="#FFFFFF" stroke="#000000" stroke-width="1.5"/>
<g font-family="Arial, sans-serif" font-size="11.0" fill="#333333">
<text x="305.0" y="382.20000000000005" text-anchor="middle" >📄 Dockerfile</text>
</g>
<rect x="370.0" y="370.0" width="110.0" height="20.0" fill="#FFFFFF" stroke="#000000" stroke-width="1.5"/>
<g font-family="Arial, sans-serif" font-size="11.0" fill="#333333">
<text x="425.0" y="382.20000000000005" text-anchor="middle" >📄 requirements.txt</text>
</g>
</svg>